<svg xmlns="http://www.w3.org/2000/svg" xmlns:xlink="http://www.w3.org/1999/xlink" viewBox="0 0 946.8 972">
  <defs>
    <mask id="mask" x="0" y="0" width="946.8" height="972" maskUnits="userSpaceOnUse">
      <g id="Layer_0Opacity_Mask" data-name="Layer 0Opacity Mask">
        <image id="Layer_0Opacity_Mask-2" data-name="Layer 0Opacity Mask" width="3156" height="3240" transform="scale(0.3)" xlink:href="assets/bag1.png"/>
      </g>
    </mask>
  </defs>
  <g mask="url(#mask)">
    <g id="Layer_0_Image" data-name="Layer 0 Image">
      <image id="Layer_0_Image-2" data-name="Layer 0 Image" width="3156" height="3240" transform="scale(0.3)" xlink:href="assets/bag2.png"/>
    </g>
  </g>
  <g id="body" style="isolation: isolate">
    <path d="M146.7,337.5c4-3.11,8.62-6.31,10.8-7.2,5.68-2.31,9.4-1.18,15.3-2.7,3.69-1,6.22-2,7.2-.9,1.31,1.53-2.91,8.52-3.6,10.8-2.08,6.88-.1,11.37,0,18.9.08,5.69-1.28,11.23-2.7,18-1.67,8-2.78,15.44-4.5,23.4-5.75,26.54-13.45,57.6-18.9,72-1.43,3.78-6.42,19.53-5.4,34.2a75.47,75.47,0,0,0,9.9,32.4c5.85,10.13,12.87,17.13,18,20.7,10.55,7.34,22.56,9.18,27.9,9.9,13.19,1.77,22.79,5.56,36,7.2,17.85,2.21,34.33,5.17,52.2,7.2,19.7,2.24,38.81,4.88,58.5,7.2,23.81,2.8,48.1,5.58,71.1,8.1,26.49,2.9,57.59,5.78,76.5,9,20.37,3.46,40,6.21,60.3,9.9,10.54,1.91,32.89,2.49,51.3,3.6,5.52.33,19.06.42,31.5-3.6,12.11-3.91,21.16-9.71,27.9-16.2,5.63-5.41,11.35-13.12,16.2-24.3,6.1-14.06,7.53-28.52,8.1-36.9,1.16-17,6-38.91,4.5-57.6a161.68,161.68,0,0,1,0-21.6c.77-9.06,3.26-17.71,4.5-25.2,1.12-6.71,2.87-12.65,3.6-18.9a67.09,67.09,0,0,1,5.4-15.3c1.64-3.15,3.73-6.18,7.2-7.2,4.16-1.22,8.09,1.09,10.8,2.7,7.48,4.44,14.06,7.92,18.9,12.6a80,80,0,0,1,7.2,8.1c4.58,5.81,8.76,11.46,12.6,17.1,3,4.37,6.37,9.49,8.1,12.6a140.78,140.78,0,0,1,9,20.7,176.37,176.37,0,0,0,11.7,26.1c5.25,9.37,10.93,15.83,16.2,25.2s8.33,17.47,11.7,27c3.79,10.71,7.82,20.82,11.7,31.5,4.84,13.32,10.41,24.89,14.4,37.8s9.61,21.68,14.4,34.2c.9,2.35,5.38,13.51,15.3,19.8,5.31,3.36,9.62,4,12.6,3.6,2.09-.26,7.68-2.83,12.6-8.1,6.53-7,9.55-13.84,10.8-19.8,1.31-6.24.7-10.82,0-16.2-1-7.93-1.13-14.81-2.7-22.5-1.64-8-4.64-16.24-6.3-22.5a215.32,215.32,0,0,1-4.5-21.6c-1.29-8.16-2.24-14.94-5.4-23.4-1.69-4.51-3.67-8.11-5.4-12.6-4.09-10.62-6.69-22-5.4-22.5s7.07,11.32,8.1,13.5c3.36,7.1,5.2,13.82,8.1,20.7,2.3,5.47,5.19,10.18,7.2,16.2,2.17,6.48,3,12.2,4.5,18.9.85,3.69,1.83,7.12,2.7,10.8.67,2.84,2.29,10.8,3.6,15.3,2.41,8.26,7.87,19.64,9,22.5,2.21,5.62,5,16.95,7.2,27,1.72,8,3.25,16.93,4.5,26.1,1.34,9.81,2.36,19.82,2.7,27.9.29,7,.24,13.56,0,20.7-.55,16-1.19,33.68-1.8,47.7-.63,14.41-1.23,25.38-4.5,37.8-4.25,16.12-10.12,28.85-16.2,37.8-4.65,6.84-11.77,14.39-17.1,23.4-3.58,6-5.89,11.69-9,18-3.26,6.6-6.69,12.27-9.9,18.9-3.44,7.09-5.73,13.11-9.9,19.8-5.22,8.37-11.43,13.31-16.2,20.7a44.32,44.32,0,0,1-5.4,6.3,20.54,20.54,0,0,1-7.2,4.5,14.74,14.74,0,0,1-7.2.9c-5.86-1.41-8.94-8.94-10.8-15.3-4.52-15.4-8.2-32.92-8.1-40.5.14-10.33-3.57-32.76-7.2-52.2-2.26-12.12-6-26.34-8.1-40.5-1.56-10.44-2.23-20.13-3.6-30.6-1.47-11.28-4.29-26.44-7.2-40.5-2.74-13.25-6.34-28.53-9.9-43.2-6.3-25.94-13.56-56.8-17.1-75.6-2.32-12.32-4.73-25.13-7.2-36-2.83-12.43-6.24-23.56-9-36-6.25-28.18-9.68-57-9-73.8.36-8.91.8-23.77.9-24.3,1.54-7.94,4.47-16.61,0-21.6-1.1-1.23-3.59-3.24-6.3-2.7-1.56.31-3.71,2.12-5.4,6.3-2,4.89-1.79,9.33-1.8,12.6,0,3.44-.65,6.37-.9,9.9-.7,9.82-1,20-.9,28.8.2,11.21,2.2,27.7,4.5,43.2,2.14,14.41,4.71,29.73,7.2,41.4,1.81,8.45,4.58,19.57,7.2,29.7,2.92,11.29,6.09,22,9,33.3,4.45,17.27,7.9,38.1,11.7,58.5,3.89,20.9,9.09,44.69,11.7,61.2,1.87,11.82,2.45,23,5.4,32.4,1.81,5.76,4.77,13.79,4.5,23.4-.08,3-.53,5.1,0,8.1.67,3.78,2,5.93.9,8.1-1.76,3.43-7.84,3.44-10.8,3.6-2.42.13-15.21,5.11-25.2,9-9.74,3.79-20,8.12-27,11.7-14.94,7.67-25,15.48-38.7,25.2-9.25,6.57-19.45,13.47-27,18-1.32.79-24.06,12.78-36,21.6-11.64,8.6-23.29,17.94-27,23.4a35.11,35.11,0,0,1-8.1,8.1,27.88,27.88,0,0,1-8.1,3.6c-10.28,2.7-20.18-1.71-22.5-2.7-11.61-5-42.62-5.28-70.2-9-10.26-1.39-34.62-4.87-51.3-7.2-21.43-3-51-7.07-63.9-9-22.44-3.36-46-7.14-65.7-10.8-12.74-2.37-25.73-5.53-36.9-7.2s-19.68-2.86-30.6-6.3c-14.59-4.6-24-10.15-37.8-18-11.27-6.43-22.17-11.37-32.4-18C153,847.77,136,833,126.9,826.2c-7-5.24-19.59-13.59-29.7-20.7-8.09-5.69-17.49-12.62-23.4-16.2-5.18-3.14-9.39-7.06-13.5-9-2.55-1.2-6.72-2.91-9-7.2-2.41-4.52-.87-8.52-.9-13.5,0-5.47-3.95-12.56-9.9-21.6-5.44-8.27-10.42-14.69-13.5-22.5-2.45-6.2-3.21-11.19-4.5-18-1.16-6.12-2.87-11-3.6-17.1-2.7-22.56,4.05-40.15,9-52.2,7.63-18.58,16.6-38.78,23.4-51.3,4.55-8.39,13.65-23.16,19.8-36,5-10.4,8.61-20.16,13.5-30.6,3.92-8.36,9.52-18.92,13.5-27,4.36-8.85,10.22-21.85,15.3-33.3,10.75-24.24,19.9-50.51,28.8-61.2,1.27-1.53,5.77-9.54,9-15.3.8-1.43,3.58-6.58,2.7-12.6-.52-3.55-2.31-8-4.5-8.1s-3.92,4.07-4.5,5.4c-5.21,11.9-13.67,19-19.8,32.4-7.31,15.94-17,35.78-25.2,52.2-4.68,9.35-9.61,17.71-14.4,27-12.61,24.44-26.17,52.53-33.3,72-2.78,7.59-6.86,18.09-12.6,27.9-3.66,6.26-8,12.09-11.7,18.9-2.23,4-6,12.23-9,18.9-3.29,7.24-5.71,13.09-7.2,19.8-1,4.4-1.48,9.92-1.8,9.9-.55,0-.91-12,.9-25.2,1.66-12.15,5.51-24.23,8.1-31.5,5.09-14.32,7.63-27,12.6-41.4,4-11.46,11.19-28.39,17.1-43.2,6.91-17.33,13-33.6,20.7-48.6A283.5,283.5,0,0,1,89.1,414c6.34-9.09,17.63-22.43,19.8-25.2a80.55,80.55,0,0,1,8.1-9,49.45,49.45,0,0,1,6.3-5.4c1.45-.79,3.32-1.56,4.5-3.6s.73-4,.9-6.3c.23-3.2,2.36-5.85,4.5-9.9,1.37-2.58,2-4.76,3.6-7.2C139.22,343.72,142.24,341,146.7,337.5Z" fill="none" fill-rule="evenodd"/>
  </g>
  <g id="rectangle" style="isolation: isolate">
    <path d="M247.2,355.8c.22-3.76,3.06-8.21,6-9.3s12.13.19,15,.9h12.6c7.76,1.94,17.2,2,24.6,4.2,2.62.79,10.85.38,12.6,1.5,1.35.43,1.54,1.25,2.4,2.1-.95,3.36-5.11,12.81-3.6,18,.23.8,1.2,1.72,1.5,2.4.91,2,.46,4.4,3,4.8,1.39-1.7,3.36-2.88,4.8-4.5,2.2-2.47,4.23-7.28,5.4-10.5.89-2.44,1.12-10.35,2.7-11.4,2-1.38,11.19-.08,13.8.6,10.61,2.77,22.94,3.32,33.6,6,3,.75,5.3-.17,8.4.6,4.62,1.15,10.91,1.24,15.6,2.4,3.09.77,5.5-.29,8.4.6,2,.62,2.14,2.87,3.6,3.9l3,.3c.49.16,1.31,1,1.8,1.2h9c2.68,0,3.76.73,5.4,1.2h11.4c2.94.73,7.05,1.67,9.6,2.4,2.08.6,5.48.17,7.2.6h13.2c1.54.39,3.48,1.42,4.8,1.8h4.8a40,40,0,0,1,8.4.6h6.6c.91.23,2.09,1,3,1.2h11.4c1.33.33,4.07.87,5.4,1.2h10.2a69.11,69.11,0,0,0,10.8,1.5c.39.64,1.13.94,1.5,1.5,1.06,1.59.59,3.64,2.4,4.5.32.23.28.18.9.3.18-2.55,1.76-5.07,2.7-6.9l.6-2.7c.62-1.17,2.37-2.07,3.3-3a54.62,54.62,0,0,1,14.4,1.8c2.68.65,6.37.11,8.4.6h9.3c7.64,0,15.51-.35,21.9,1.2,4.39,1.07,14.13-2.37,14.7,2.4-4.37,4.52-1,20.6.3,26.4h.9c4.77-5.78,11.49-15.9,12.3-25.2,1.59.13,2,.87,3,1.2,2.35.75,8.26-.6,11.4-.6,8.38,0,17.1.39,23.4,2.4,2.38.76,6.9.09,9,.6h10.2a48.75,48.75,0,0,1,9,1.5c2.77.74,4.43,1.94,7.2,2.7,1.09.3,2.56.67,3,1.8.68,1.76-1.66,4-3.3,6a30.16,30.16,0,0,0-5.4,9.9,187.06,187.06,0,0,0-4.8,20.1q-1.67,9.24-2.4,18.6c-.47,3.71-.86,7.35-1.2,11.1-1.36,15-.87,28.75-1.8,43.2q-.93,14.36-3.3,30c-1,6.79-2.21,13.39-3.6,20.1-.16,2.12-.35,4.19-.6,6.3-.18,1.51-.37,3-.6,4.5v1.8c-.39,1.1-1.44,2.29-1.8,3.6-.43,1.58,0,2.82-.6,4.2-1.14,2.47-3.19,5.84-4.2,8.4l-.3,2.1c-.24.45-1.3,1-1.5,1.5-.55,1.33-.59,5.09-.9,6.6-3.53,1.65-5.27,5.28-8.1,7.8v1.8a3.16,3.16,0,0,0-1.8.3c-1.5.48-1.85,1.71-3,2.4l-2.4.6c-2,1.19-3.4,3.3-5.1,4.8s-4.28,1.72-6.3,3c-.9.57-1.49,1.85-2.4,2.4-1.93,1.16-4.15.75-6.3,1.8-2.62,1.28-5.5,3.1-8.7,3.9h-6c-3.08.75-8.23-.31-12,.6a23.87,23.87,0,0,1-9.6,0h-4.5c-3.93,0-8.68.15-11.7-.6H575.4c-.49-.16-1.31-1-1.8-1.2h-6l-4.8-1.2c-3.39-.85-8.08.08-10.8-.6h-6.6c-11.79-2.93-27.27-3.67-39-6.6h-9c-.49-.16-1.31-1-1.8-1.2h-3.9c-3.65,0-6.69.21-9.9-.6-6.07-1.54-14.06-1.42-20.4-3H456c-2.86-.71-5.8-1.74-8.4-2.4H441c-6-1.49-14.35-1.49-20.4-3H414c-2-.5-5.72.06-8.4-.6-5.58-1.39-13.44-1.49-18.6-3-3.1-.91-7.29-.47-10.2-1.2h-5.4c-.8-.21-1.69-1-2.4-1.2-3.75-1.09-7.35.4-11.4-.6-2.7-.67-8.1-.52-10.8-1.2H342c-.49-.16-1.31-1-1.8-1.2-1.19-.39-2.82-.4-3.6-.6H330a61,61,0,0,0-6.6-1.2H315c-1-.32-2-1.5-3-1.8h-6.3c-1.28-.21-3.3-.9-4.5-1.2H294c-1.54-.39-3.47-1.41-4.8-1.8-3.2-.94-6.12.27-9.6-.6-2.66-.66-6.51-1.17-9-1.8-3.75-.94-8.12.41-12-.6-1.3-.34-2.5-1.44-3.6-1.8h-4.2c-3.4-.85-7.12-.8-10.8-1.8-7.25-2-15.91-3.49-23.4-5.4-2.5-.64-4.19,0-6.6-.6-2.69-.69-5.92-1.76-8.4-2.4H198c-3.33-1.09-8-2.18-11.4-3.6-.81-.34-1.58-1.5-2.4-1.8l-3-.3c-1.27-.48-2.34-1.9-3.6-2.4s-1.94,0-3-.6-2-2.06-3-2.7c-1.32-.87-2.66-.7-4.2-1.5-1.07-.56-1.85-2.16-2.7-3s-2.48-1.41-3.3-2.4-.82-2.2-1.5-3.3-2.27-2.35-3-3.6c-.51-.87-.37-1.6-.9-2.4-.64-1-2.18-2-2.7-3s-.27-2-.9-3l-1.2-.9c-.58-.85-.1-1.56-.6-2.7-.24-.55-1.26-1.2-1.5-1.8l-.6-3.3c-.33-.66-1.61-1.35-1.8-2.1l.3-3c-.22-.63-1.34-1.16-1.5-1.8l.6-3.9c-.18-.61-1-1.79-1.2-2.7-.46-2,.63-3.51.9-4.8l-.3-3.6c.11-3,.31-6,.6-9a188.3,188.3,0,0,1,6-29.7c6.09-19.73,13.6-46.93,16.8-64.2,7.75-41.89,4-72.57,15.9-75.9,2.92-.82,6.2.17,9.6,2.4h4.2c1.68.42,4,.53,6,1.2,1.1.38,2.29,1.47,3.6,1.8h4.2c.68.22,1.53,1.22,2.1,1.5l4.5.6c2,.71,4.62,2.13,6.6,2.7H231c1,.35,1.95,1.7,3,2.1,2.11.81,5.09.17,7.2.9,1.65.57,3,2.47,4.2,3.6-.06,4.32-1.18,9.8-.3,14.4C246.22,355.38,246.09,355.6,247.2,355.8Z" fill="none" fill-rule="evenodd"/>
  </g>
  <g id="handle" style="isolation: isolate">
    <path d="M469.2,0l31.2,3.6c10.12,1.63,20,3.4,30,5.4,5.75,1.15,11.38,2.33,17.1,3.6,17.26,7.71,32.57,17.15,45.6,29.1,1.28,1.17,1.84,2.9,3,4.2,1.38,1.55,3.43,2.64,4.8,4.2.87,1,.93,2.61,1.8,3.6s2.24,1.64,3,2.7l2.4,4.5c2.18,2.49,4.91,5.2,6.6,8.1,1.43,2.45,2.12,4.84,3.6,7.2.4.63,1.44,1.2,1.8,1.8,1.13,1.92,1.41,4.09,2.4,6,.77,1.48,2.32,2.9,3,4.2,1.43,2.73,1.66,5.3,3,8.1,3.08,6.42,5.54,14.1,8.4,20.7.69,1.6.33,3.14.9,4.8,1.76,5.12,3.45,11.44,4.8,16.8v3c2.33,8,5,17,7.2,25.2.53,2,.05,3.32.6,5.4,2.65,10,4.53,21.8,7.2,31.8,1.41,5.27,1.15,11.13,2.4,16.2v3.6c3.48,13.91,4.44,30.75,7.8,44.4v5.4c.85,3.4,1.12,9.44,2.4,12.6.85,2.09,3.48,4,4.5,6a50.6,50.6,0,0,1,1.8,4.8c1,2.45,3.07,5,4.2,7.2l.6,2.7a107.35,107.35,0,0,1,4.2,9.9c.59,1.61.42,3.06,1.2,4.5.57,1.07,2.28,1.52,2.7,2.7,1.23,3.45-1.31,14-.3,15.6,1.65,4.85,9.92,7.1,10.2,13.2-.24.31-.11.08-.3.6-.72.47-.88.88-1.8,1.2-2.44-2-6.49-1.17-9.6-2.7-.53-.26-1.13-1.27-1.8-1.5l-6-.6c-1.87-.51-3.46-1.89-5.4-2.4l-6-.6c-6.56-1.7-14.58-3.2-21-4.8-3-.75-6.15-.33-9-.9l-.3-.9c-1-1.61.26-3.92.3-5.7.13-5.92.52-10.11.6-15.9-1.07-.88-.73-1.66-2.7-1.8a58.14,58.14,0,0,1-5.4,9c-.95,1.38-2.76,2.38-3.6,3.9-1.89,3.42-2.1,8.31-2.7,12.3.87,0,.42-.29.9,0,.24.31.11.08.3.6h-1.5v2.1h.9v.9H624v10.8c.3,1.22,1.6,3.87,1.2,5.4-.27,1-1.05,1.43-1.2,3-3.35,0-4.81-1.11-6.9-2.1-2.29-1.09-5.81-1.52-8.1-2.1-3.42-.86-8.18-.42-11.4-1.2h-5.7c-5.19,0-11.68-.41-15.9.6h-6c-3.11.75-4.92,2.76-8.4,2.1a3.45,3.45,0,0,0-.6-.9c.24-1.12,1.3-2.27.9-3.6-.14-.48-1-.83-1.2-1.2-.61-1.1-1.38-3.22-1.8-4.2-.91-2.14-2.38-14.54-1.5-18,.23-.9,1-2.09,1.2-3l-.3-3.6c1.35-4.41,4-9.54,6-13.5l.6-2.7c.73-1.63,2.17-3.51,3-5.1s.91-3,1.8-4.5c.6-1,2-2,2.7-3,.93-1.43.67-3.16,1.5-4.8,1-1.9,2.84-3.57,4.2-5.1,1.83-2.07,3.11-4.41,5.1-6.3a85,85,0,0,1,2.4-20.4v-4.8a16.07,16.07,0,0,1,.6-4.2V242.4c1.08-4.48.6-11.34.6-16.8v-7.2c-3.3-13.09-3.77-28.12-7.2-40.8-.55-2-.79-3.78-1.2-5.4v-3c-4-12.21-7.36-25.76-12.3-37.2l-.6-3.6c-1.64-4.52-3-9.18-4.8-13.8-.85-2.17-2.66-4.52-3.6-6.6-2.54-5.59-4.4-10.56-7.2-15.9-1.64-3.13-4.65-5.86-6.6-8.7-2.62-3.8-4.18-8.3-7.2-11.7-2.32-2.61-5.32-4.73-7.8-7.2-2.67-2.67-5-5.89-7.8-8.4-2.46-2.19-5.77-3.06-8.7-4.8-1.88-1.12-3.56-3.27-5.4-4.5-1.6-1.07-2.91-1.15-4.8-2.1-3.47-1.75-6.86-4.57-10.8-6-1.5-.54-4.14-.59-5.4-.9-5.67-1.41-14.84,2.51-18.6,3.9-4.55,1.68-8.82,2.09-12.9,4.2-8.18,4.24-18.6,9.16-25.2,15-.28.25-.32,1-.6,1.2-.87.79-2.12,1-3,1.8s-1.49,2.16-2.4,3-2.12,1-3,1.8c-1.35,1.2-2.32,2.92-3.6,4.2s-3,2.25-4.2,3.6-1.34,3-2.4,4.2-2.35,2.91-3.6,4.2c-.27.28-.95.31-1.2.6-.66.75-.64,1.83-1.2,2.7-.67,1-2,2-2.7,3s-.81,2-1.5,3C398,96,396,97.72,394.8,99.6c-1.58,2.41-2.27,5.23-3.6,7.8-5.8,11.17-10.21,24-14.7,36.6-.8,2.24-.53,4.39-1.2,6.6-2.92,9.59-4.19,20.94-6.9,30.6-3.63,12.94-8.27,37.06-4.2,53.4v4.2c.3,1.21.89,3.59,1.2,4.8v3c.44,1.24,1.91,1.8,2.7,2.7s.82,2.26,1.5,3.3c.89,1.37,2.48,2.79,3.3,4.2,1.57,2.69,2.82,7.11,4.8,9.3,1.72,1.9,5.36,3.33,6.6,5.7,1.63,3.12-.25,12.06,1.2,14.4,1.07,3.19,5.08,5.19,7.2,7.5,2.82,3.08,4.18,6.65,5.7,11.1.48,1.42,2.15,5.05,1.5,6.6a2.68,2.68,0,0,1-2.7,2.1c-1.1.74-4.24.26-5.4,0a17.48,17.48,0,0,0-.6-2.1l-2.1-1.8-.6-2.7a22.28,22.28,0,0,0-4.5-5.7c-.53.19-.29.06-.6.3-1.35.58-1,1.82-2.4,2.4-2,1.28-7.9-.3-10.5-.3-5.72,0-13,.57-17.7-.6h-4.2c-3.29-.81-9.54-2-12.6-.9-3.35,7.58-8.5,14.1-11.4,21.9l.3,2.4c-.17.47-1,.55-1.2.9a16.14,16.14,0,0,0-.9,3.3c-.89,3.49.32,8.23-.3,11.4a7,7,0,0,0-1.5,1.2c-3.73.08-4.84-1.22-7.2-2.1-2.67-1-5.2-.66-7.8-1.8-.4-.18-1.33-1-1.8-1.2-6.12-2.34-13.88-3.4-20.4-5.1-3.28-.86-13.67-1.25-17.7-.6-1.56.25-3.77,1-5.7.3a18.71,18.71,0,0,1-5.1-4.5c-.75-1.43-.21-3.36-1.5-4.2a6.38,6.38,0,0,1-4.2,2.4c-.12-6.14,3.58-6.12,4.8-9.6v-3.6l.9-6.6c1.13-3.18,2.33-7.81,3.3-10.8l.3-4.2c3.28-9.18,6.07-19.19,10.8-27,.55-.91,4.16-5.08,5.1-5.4,1.81-.63,3.48.23,4.8-.6,1.79-1.13,2.51-3,3.9-4.5,1.22-1.35,3.15-2.42,4.2-3.9.67-.94.41-1.75.9-3s1.93-2.84,2.4-4.2c.8-2.3,1.22-4.42,1.8-6.6l.3-3c1.17-2.7,2.36-6.61,3.6-9.3l.6-3.3c.46-1.06,1.73-2.49,2.1-3.6,1-2.94.36-5.16,1.5-7.8.49-1.14,1.73-3.05,2.1-4.2.58-1.79-.35-3.87.3-5.4,2.36-5.55,4.18-12.67,5.7-18.6,3.08-12,4.94-24,9-34.8,1.52-4,1-8.77,2.7-12.6,3.85-8.91,6.18-18.74,10.2-27.6.16-.35,1-1.16,1.2-1.5.63-1.28.49-2.73,1.2-3.9.34-.55,1.24-1.17,1.5-1.8l.3-2.4c.41-1,1.72-2,2.1-3V91.8c.26-.73,1.21-1.68,1.5-2.4V88.2c1.16-2.54,3.45-5.17,4.5-7.8.88-2.19.95-4.58,2.1-6.6,1.92-3.36,4.83-6.44,6.9-9.6,1.17-1.79,1.59-3.57,2.7-5.4.7-1.15,2.32-2.06,3-3.3.78-1.42.93-2.63,1.8-3.9a50.34,50.34,0,0,1,5.4-6.3c.28-.28.94-.31,1.2-.6.78-.88,1-2.14,1.8-3,1.8-2,4.11-3.52,6-5.4,2.09-2.08,3.83-4.61,6-6.6.87-.79,2.12-1,3-1.8.72-.64,1.26-1.89,2.1-2.4,2.35-1.42,4.35-2.4,6.6-3.9,1-.67,2-2.09,3-2.7,4.08-2.45,8.34-6.31,13.8-7.8a30.54,30.54,0,0,1,11.1-.9c3.74-1.58,7.53-3,11.4-4.2a127.78,127.78,0,0,1,14.1-3.6A129.69,129.69,0,0,1,469.2,0Z" fill="none" fill-rule="evenodd"/>
    <path d="M625.8,342.6h.6v.6h-.6Z" fill="none" fill-rule="evenodd"/>
  </g>
  <g id="triangles" style="isolation: isolate">
    <path d="M233.7,892.5c-6.44-1-12.66-2.18-18.9-3.6-9.56-2.17-18-4.82-27.6-6.9L180,880.4c-2.39-.55-4.77-1.11-7.18-1.7l-4.2-.6c-1.36-.58-4-1.69-5.4-2.1-2.92-.85-6.11-.41-9-1.2-15.58-4.25-32.86-6.65-48.6-10.8-2.41-.64-4.64-.71-6.6-1.2H94.8c-7-1.74-14.88-2.92-20.7-5.7-1.89-.9-4-.54-5.4-1.8-4.46-3.93-10-13.47-11.7-20.1-.47-1.84,0-4.48-.3-6-4.61-2.73-10.33-1.1-13.2-6-6.21-10.6-.47-30.18,3-39.6C48,779.55,48.35,775,51,772.2c.53.19.29.06.6.3,2.12.68,3.08,2.78,4.5,4.2,2.06,2.06,4.43,4.08,6.6,6,1.32,1.16,2.93,1.45,4.5,2.4s3.07,2.59,4.5,3.6,3.39,1.4,5.1,2.4c2.21,1.29,4.44,3.44,6.6,4.8,5.72,3.59,11,6.78,16.8,10.2,2.41,1.44,4.27,4.14,6.6,5.7,10.68,7.17,18.33,12.45,28.2,20.7,2.66,2.22,5.12,4.3,7.8,6.3,2.9,2.16,8,5.48,9.6,6.6,2.17,1.5,6.74,5,10.2,7.5,2.64,2,6.1,4.52,7.8,5.7a142.86,142.86,0,0,0,22.2,12.6l3,2.4a59,59,0,0,1,7.2,3.6,57.57,57.57,0,0,1,5.4,3.6c2.27,1.39,4.54,2.67,6.9,3.9A119.48,119.48,0,0,0,233.7,892.5Z" fill="none" fill-rule="evenodd"/>
    <path d="M584.4,954.6V951c-.54-1.58-3.3-3.23-2.4-5.4.77-1.1,1.6-.09,3-.6l3.9-3.6c1.25-1.66,2.21-3.56,3.6-5.1.5-.55,1.39-.85,1.8-1.5.84-1.34.71-3.15,2.1-3.9h1.2a19.13,19.13,0,0,0,3.6-2.4l2.4-3c1.36-.9,2,.11,3.6-.6a37.36,37.36,0,0,0,3.3-2.4c1.85-1.68,2.91-4.33,4.8-6,.86-.76,1.91-.62,3-1.2s2.15-2.39,3.3-3h1.2c1.19-.5,2-1.81,3-2.4s2.16-.57,3.3-1.2,2.12-2.25,3.3-3c2.23-1.42,5-1.9,6.9-3.6.69-.61,1.27-2,2.1-2.4l3.3-.6c3.5-1.69,6.68-4.68,9.9-6.6,1.79-1.07,3.67-1.29,5.4-2.4.87-.56,1.54-1.88,2.4-2.4,3.64-2.2,6.79-4,10.2-6.3,1-.71,1.94-2.43,3-3,.88-.47,1.65-.11,2.4-.6,1.56-1,2.72-2.83,4.2-3.9,1.14-.82,2.37-1,3.6-1.8a34.74,34.74,0,0,0,3.3-3c1-.85,2.59-.94,3.6-1.8a138.07,138.07,0,0,1,12.9-9.3c1-.67,2-2.09,3-2.7.83-.5,3.69-2.24,4.2-2.4,1-.32,1.73.43,2.4.3,1.18-.23,2.1-1.66,3-2.1l2.4-.3c1.53-.62,2.84-2.42,4.2-3.3,2.45-1.59,5.33-2.91,7.8-4.2,6.46-3.37,13.69-6.08,20.4-9l4.2-.6c4.06-1.44,8.91-2.81,13.2-3.9h3c4.36-1.1,11.79-3,16.8-2.1,3.76,6.28,4,18.78,6,26.7V858c2.08,8.29,2.12,18,4.2,26.4v6c.73,2.94,1.06,7.21,1.8,10.2v4.2c1.12,4.51,1.32,10,2.4,14.4V924c.84,3.36,1.5,8,2.4,11.4.44,1.64.09,2.71.6,4.2.76,2.21,1.71,4.7,2.7,7.2.47,1.18,1.89,2,2.4,3s.28,2,.9,3a43.79,43.79,0,0,1,2.7,4.2c1,2,3.6,5.59.9,7.5a23.21,23.21,0,0,1-6.6,3.3c-3.27.85-5.9-.16-9,.6-4.64,1.13-11.77.6-17.4.6-12.56,0-23.35-.6-35.7-.6-6.2,0-12.14,0-17.1-1.2-2.68-.66-6.37-.1-8.4-.6h-6.6c-4.61-1.14-11.21-.71-15.6-1.8h-7.2c-4.24-1-10.23-.77-14.4-1.8h-6.6a37.9,37.9,0,0,1-7.8-1.2h-6c-12.15-3-27.25-2.48-39-5.4H615C606.68,954.35,593.57,955.33,584.4,954.6Z" fill="none" fill-rule="evenodd"/>
  </g>
  <g id="shadowLayer" class="shadowLayer" data-name="shadow Image">
    <image id="shadow_Image-2" data-name="shadow Image" width="3129" height="3236" transform="translate(4.8) scale(0.3)" xlink:href="assets/bag3.png"/>
  </g>
</svg>
