<svg xmlns="http://www.w3.org/2000/svg" xmlns:xlink="http://www.w3.org/1999/xlink" viewBox="0 0 584.25 600">
  <g id="handbagLayer2" class="handbagLayer">
    <image id="handbagLayer_Imagen" data-name="handbagLayer Imagen" width="779" height="800" transform="scale(0.75)" xlink:href="assets/tassel1.png"/>
  </g>
  <g id="tasselLayer" style="isolation: isolate">
    <path d="M507,432h9.75v9c4.1.44,5,1.35,7.5,3-.35,23.62,2.43,46.56,8.25,65.25l9.75,25.5c-5.44-.49-3.26-3.57-9.75-3.75l-8.25-32.25h-.75l4.5,28.5c-1.58,1.26-1.48,1.16-4.5,1.5l1.5,9c-11.23,1.06-26.38,2.1-38.25-1.5-1.13-9.4,3.54-17.47,5.25-27l-1.5.75c-.62,8-5.49,24.63-12.75,26.25v-3c8.46-18.39,14.43-40.32,19.5-62.25,1.31-5.65,3.08-26.81,5.25-29.25L507,441Z" fill="none" fill-rule="evenodd"/>
  </g>
  <g id="shadowLayer2" class="shadowLayer">
    <image id="shadowLayer_Imagen" data-name="shadowLayer Imagen" width="88" height="300" transform="translate(477 314.25) scale(0.75)" xlink:href="assets/tassel2.png"/>
  </g>
</svg>
